<svg width="89" height="90" viewBox="0 0 89 90" fill="none" xmlns="http://www.w3.org/2000/svg">
<mask id="path-1-inside-1" fill="white">
<path d="M44.5 3.80521C44.5 1.83908 46.0965 0.230402 48.0563 0.387521C55.6042 0.992609 62.8943 3.51619 69.2229 7.74482C76.5409 12.6345 82.2445 19.5845 85.6126 27.7158C88.9807 35.8471 89.862 44.7946 88.1449 53.4267C86.4279 62.0589 82.1897 69.988 75.9663 76.2115C69.7428 82.4349 61.8137 86.6731 53.1815 88.3902C44.5494 90.1072 35.6019 89.2259 27.4706 85.8578C19.3393 82.4897 12.3893 76.7861 7.4996 69.4681C3.27098 63.1395 0.747401 55.8494 0.142309 48.3016C-0.0148066 46.3417 1.59387 44.7452 3.56 44.7452C5.52613 44.7452 7.10242 46.3427 7.28938 48.2999C7.87569 54.4378 9.9737 60.3552 13.4197 65.5124C17.527 71.6595 23.365 76.4506 30.1953 79.2798C37.0256 82.109 44.5415 82.8493 51.7925 81.407C59.0435 79.9646 65.704 76.4045 70.9316 71.1769C76.1593 65.9492 79.7194 59.2887 81.1618 52.0377C82.6041 44.7867 81.8638 37.2708 79.0346 30.4405C76.2054 23.6102 71.4143 17.7722 65.2672 13.6649C60.11 10.2189 54.1926 8.12091 48.0547 7.53459C46.0975 7.34763 44.5 5.77134 44.5 3.80521Z"/>
</mask>
<path d="M44.5 3.80521C44.5 1.83908 46.0965 0.230402 48.0563 0.387521C55.6042 0.992609 62.8943 3.51619 69.2229 7.74482C76.5409 12.6345 82.2445 19.5845 85.6126 27.7158C88.9807 35.8471 89.862 44.7946 88.1449 53.4267C86.4279 62.0589 82.1897 69.988 75.9663 76.2115C69.7428 82.4349 61.8137 86.6731 53.1815 88.3902C44.5494 90.1072 35.6019 89.2259 27.4706 85.8578C19.3393 82.4897 12.3893 76.7861 7.4996 69.4681C3.27098 63.1395 0.747401 55.8494 0.142309 48.3016C-0.0148066 46.3417 1.59387 44.7452 3.56 44.7452C5.52613 44.7452 7.10242 46.3427 7.28938 48.2999C7.87569 54.4378 9.9737 60.3552 13.4197 65.5124C17.527 71.6595 23.365 76.4506 30.1953 79.2798C37.0256 82.109 44.5415 82.8493 51.7925 81.407C59.0435 79.9646 65.704 76.4045 70.9316 71.1769C76.1593 65.9492 79.7194 59.2887 81.1618 52.0377C82.6041 44.7867 81.8638 37.2708 79.0346 30.4405C76.2054 23.6102 71.4143 17.7722 65.2672 13.6649C60.11 10.2189 54.1926 8.12091 48.0547 7.53459C46.0975 7.34763 44.5 5.77134 44.5 3.80521Z" fill="url(#paint0_linear)" stroke="white" stroke-width="2" mask="url(#path-1-inside-1)"/>
<defs>
<linearGradient id="paint0_linear" x1="-4.48653e-08" y1="44.7452" x2="59.2731" y2="53.9176" gradientUnits="userSpaceOnUse">
<stop stop-color="#FA5D75"/>
<stop offset="1" stop-color="#7864F6" stop-opacity="0.67"/>
</linearGradient>
</defs>
</svg>
